<svg width="1024" height="1024" viewBox="0 0 1024 1024" fill="none" xmlns="http://www.w3.org/2000/svg">
<path d="M712.992 589.994C705.97 595.995 699.518 602.89 691.803 607.804C677.747 616.76 663.316 625.307 648.345 632.595C633.747 639.702 617.942 644.233 601.714 645.723C588.016 646.981 574.098 647.614 560.403 646.681C542.049 645.43 524.061 641.103 506.756 634.755C481.768 625.588 458.381 613.174 436.396 598.164C418.788 586.143 402.571 572.401 388.321 556.589C373.165 539.771 361.777 520.597 357.608 497.999C354.173 479.379 355.681 461.073 363.259 443.451C368.285 431.761 374.596 420.66 383.786 412.046C401.743 395.217 422.082 382.842 448.186 385.05C464.923 386.465 479.857 392.716 493.227 402.78C494.394 403.659 495.275 404.916 496.784 406.525C491.905 407.197 487.505 407.416 483.303 408.446C461.922 413.684 447.948 427.645 440.249 447.579C436.853 456.371 434.694 466.121 434.4 475.512C434.008 488.017 437.89 500.027 444.491 510.922C455.696 529.42 471.31 543.517 488.741 555.939C514.074 573.994 541.557 587.595 571.305 596.613C596.131 604.139 621.538 607.83 647.434 605.851C669.273 604.182 690.114 598.355 709.866 587.262C711.309 588.144 712.151 589.069 712.992 589.994Z" fill="#0F5255"/>
<path d="M701.025 628.072C692.969 637.266 685.544 647.131 676.679 655.464C667.817 663.796 657.789 670.988 647.786 677.985C628.941 691.165 607.993 700.003 585.33 703.545C563.537 706.951 541.529 706.12 520.448 699.037C504.968 693.836 489.64 687.829 474.945 680.731C452.316 669.802 430.388 657.432 407.976 646.04C383.94 633.823 359.63 622.127 333.269 615.627C312.383 610.477 291.214 608.069 269.737 610.942C259.109 612.363 248.549 614.293 237.367 616.134C236.527 616.448 236.283 616.629 236.045 616.818C235.63 616.87 235.216 616.922 234.287 617.134C233.509 617.478 233.253 617.672 233.005 617.878C232.297 617.919 231.589 617.96 230.33 618.143C229.52 618.463 229.268 618.652 229.024 618.85C228.595 618.905 228.165 618.959 227.184 618.806C221.973 615.303 224.331 611.579 225.98 607.898C227.436 606.373 228.893 604.848 230.807 603.021C231.513 602.54 231.755 602.35 231.987 602.149C233.112 601.202 234.236 600.255 235.814 599.022C236.503 598.561 236.733 598.378 236.957 598.187C237.749 597.557 238.541 596.926 239.789 596.005C240.502 595.532 240.751 595.338 240.99 595.133C261.342 580.566 283.379 569.81 308.382 566.191C330.926 562.928 352.447 566.919 373.385 575.636C394.485 584.42 412.084 598.515 430.206 611.853C455.814 630.701 482.599 647.396 513.013 657.477C536.246 665.178 560.178 668.833 584.555 666.825C620.298 663.882 652.87 651.537 682.377 631.14C684.691 629.54 686.998 627.93 689.973 626.11C691.879 625.57 693.245 625.477 694.336 624.881C698.148 622.798 700.014 624.458 701.025 628.072Z" fill="#0F5255"/>
<path d="M701.305 627.909C700.014 624.458 698.148 622.798 694.336 624.881C693.245 625.477 691.879 625.57 690.256 625.931C697.246 620.006 704.62 614.045 711.993 608.083C712.375 608.375 712.757 608.667 713.14 608.959C711.078 616.22 705.24 621.373 701.305 627.909Z" fill="#185556"/>
<path d="M225.634 607.96C224.331 611.579 221.973 615.303 226.862 618.844C220.871 621.543 214.651 623.997 208.431 626.451C208.093 626.071 207.755 625.692 207.418 625.312C213.375 619.549 219.331 613.785 225.634 607.96Z" fill="#185254"/>
<path d="M713.28 589.826C712.151 589.069 711.309 588.144 710.166 587.095C714.318 584.067 718.772 581.162 723.225 578.257C723.52 578.562 723.816 578.866 724.111 579.171C720.597 582.667 717.082 586.163 713.28 589.826Z" fill="#185254"/>
<path d="M726.244 576.649C726.064 576.691 725.961 576.647 725.858 576.603C726.012 576.59 726.166 576.576 726.244 576.649Z" fill="#185254"/>
<path d="M240.74 595.174C240.751 595.338 240.502 595.532 240.049 595.846C240.066 595.724 240.278 595.47 240.74 595.174Z" fill="#185254"/>
<path d="M236.731 598.241C236.733 598.378 236.503 598.561 236.086 598.864C236.037 598.701 236.237 598.468 236.731 598.241Z" fill="#185254"/>
<path d="M231.744 602.191C231.755 602.35 231.513 602.54 231.073 602.849C231.002 602.659 231.208 602.41 231.744 602.191Z" fill="#185254"/>
<path d="M236.281 616.772C236.283 616.629 236.527 616.448 236.966 616.149C237.008 616.316 236.795 616.551 236.281 616.772Z" fill="#185254"/>
<path d="M233.259 617.837C233.253 617.672 233.509 617.478 233.974 617.16C233.955 617.283 233.734 617.54 233.259 617.837Z" fill="#185254"/>
<path d="M229.268 618.802C229.268 618.652 229.52 618.463 229.975 618.154C230.022 618.33 229.802 618.574 229.268 618.802Z" fill="#185254"/>
<path d="M605.036 467.113C604.579 475.016 600.685 479.301 593.243 478.871C586.613 478.487 585.767 484.57 582.256 487.599C580.082 489.476 578.416 492.09 576.993 494.636C576.092 496.248 575.448 498.452 575.757 500.201C576.466 504.218 575.818 507.866 572.36 509.779C570.179 510.985 566.023 511.658 564.559 510.425C562.254 508.485 561.427 504.758 560.06 501.748C559.264 499.997 559.035 497.818 557.839 496.459C556.02 494.393 553.467 492.994 551.431 491.092C547.156 487.1 543.784 487.406 538.367 490.524C522.087 499.895 505.027 499.171 487.419 491.305C488.603 490.259 489.184 489.434 489.973 489.096C505.793 482.324 515.463 470.861 518.098 453.532C520.452 438.051 515.123 425.199 505.298 413.847C491.642 398.07 473.883 388.929 453.76 385.238C429.714 380.828 407.192 385.676 386.957 399.976C362.779 417.063 347.7 439.962 341.94 469.058C337.555 491.204 341.347 512.026 351.438 531.943C352.317 533.677 353.119 535.449 353.956 537.204C353.671 537.565 353.386 537.925 353.1 538.286C349.168 535.456 344.916 532.978 341.36 529.736C326.296 516.004 314.345 499.994 308.78 480.142C306.282 471.23 305.06 461.876 304.097 452.636C302.131 433.783 306.349 415.755 314.748 399.124C319.931 388.862 327.134 379.48 334.308 370.396C344.924 356.953 358.873 347.215 373.794 339.189C387.308 331.919 401.677 326.051 416.999 324.226C430.748 322.587 444.771 321.523 458.549 322.331C472.516 323.151 486.279 326.919 499.043 333.098C506.948 336.925 514.506 341.468 522.866 345.895C524.358 346.781 525.204 347.461 526.049 348.141C529.277 351.169 532.402 354.314 535.748 357.204C551.638 370.925 561.49 388.491 566.562 408.46C571.35 427.312 570.525 446.363 562.099 464.228C558.734 471.362 553.359 477.548 548.472 484.8C552.471 488.229 557.265 492.342 562.368 496.719C563.074 496.2 563.937 495.075 564.524 495.205C574.764 497.461 577.116 488.164 582.293 483.108C584.03 481.412 585.29 479.228 585.406 477.317C585.352 473.021 584.175 468.337 585.493 464.513C587.828 457.739 595.97 456.679 601.185 461.672C602.116 462.564 603.238 463.255 604.633 464.484C605.007 465.657 605.022 466.385 605.036 467.113Z" fill="#3CA791"/>
<path d="M633.967 454.918C634.321 453.514 635.04 452.088 634.961 450.708C634.691 446.045 637.783 443.646 640.753 440.935C641.736 440.037 642.436 438.1 642.254 436.778C641.362 430.303 640.265 423.847 638.911 417.454C638.602 415.994 637.166 413.883 635.945 413.648C626.943 411.914 624.349 405.972 624.962 397.69C619.264 394.626 613.699 391.546 608.022 388.689C607.274 388.312 605.916 388.968 604.905 389.326C601.612 390.494 598.357 392.726 595.072 392.755C588.662 392.81 584.77 388.341 586.293 381.368C587.67 375.064 583.935 372.95 580.399 370.213C576.789 367.421 572.876 365.019 568.703 362.179C565.834 363.664 562.691 365.791 558.471 363.298C554.12 360.728 554.702 356.874 555.185 353.305C555.685 349.604 558.383 346.952 562.345 347.121C566.011 347.278 570.858 348.75 570.527 352.63C569.743 361.802 577.144 363.758 582.087 367.978C583.319 369.029 585.137 369.519 586.105 370.73C588.017 373.124 589.98 372.978 592.6 372.151C594.441 371.569 596.638 372.204 598.572 371.8C600.02 371.497 601.959 370.743 602.55 369.604C605.602 363.718 608.501 357.727 610.947 351.571C611.507 350.163 610.45 347.724 609.485 346.163C605.152 339.163 606.807 331.692 613.804 327.729C618.05 325.325 623.681 325.791 627.483 329.072C631.835 332.827 634.179 337.098 631.589 343.864C629.898 348.281 625.595 350.954 620.256 350.98C618.764 350.987 617.273 350.981 615.515 350.981C611.993 358.037 608.422 365.018 605.073 372.104C604.603 373.099 605.146 374.619 605.362 375.871C605.469 376.491 606.138 377.049 606.15 377.643C606.324 386.417 613.723 388.028 619.532 391.197C621.403 392.217 623.314 393.178 625.265 394.033C626.072 394.386 627.495 394.843 627.855 394.479C633.52 388.749 639.346 390.434 645.097 394.073C650.728 389.995 656.25 386.18 661.511 382.033C662.595 381.179 663.347 378.991 663.14 377.581C662.464 372.966 663.15 368.248 666.924 366.067C669.849 364.377 674.56 364.242 677.949 365.231C683.629 366.887 685.143 371.902 683.026 378.058C681.293 383.098 675.44 387.015 671.009 384.672C666.201 382.131 663.779 385.318 660.611 386.96C658.315 388.151 656.35 389.964 654.159 391.38C649.482 394.4 645.692 397.558 646.734 404.246C647.065 406.371 644.32 408.916 643.162 411.354C642.456 412.839 641.471 414.576 641.683 416.045C642.57 422.172 643.829 428.246 645.02 434.326C645.635 437.468 646.777 439.914 650.389 441.103C656.147 443 658.139 449.404 656.346 455.324C654.554 461.244 647.128 464.149 642.226 461.58C639.645 460.227 637.234 458.552 634.378 456.685C633.995 455.872 633.981 455.395 633.967 454.918Z" fill="#40A790"/>
<path d="M668.963 495.105C660.966 495.235 659.268 496.945 658.945 504.705C658.618 512.573 658.112 520.433 657.678 528.414C659.922 530.515 663.024 532.565 664.952 535.41C668.524 540.684 666.283 548.386 660.826 551.611C655.646 554.673 647.737 552.38 644.428 546.856C641.489 541.95 643.139 533.718 648.658 531.399C654.483 528.951 655.098 525.118 655.135 519.77C655.181 513.071 656.279 506.385 656.639 499.678C656.713 498.316 655.89 496.263 654.829 495.642C653.419 494.816 650.903 494.286 649.671 495.009C642.081 499.464 634.718 504.307 627.081 509.147C628.677 514.864 628.905 520.125 622.921 523.665C618.441 526.316 612.603 525.44 608.698 521.179C605.716 517.924 605.825 511.295 608.924 507.387C612.424 502.975 618.223 501.27 622.311 504.303C625.021 506.313 626.728 505.331 628.783 504.042C635.008 500.137 641.433 496.48 647.244 492.026C648.808 490.827 648.797 487.155 648.929 484.588C649.292 477.522 656.249 472.183 662.672 474.287C669.196 476.424 672.255 482.348 670.403 489.173C670.15 490.106 670.126 491.102 669.886 492.761C669.506 494.004 669.234 494.554 668.963 495.105Z" fill="#40A790"/>
<path d="M698.918 507.927C699.271 507.035 699.927 506.143 699.932 505.249C699.987 493.856 699.957 482.463 699.908 471.07C699.906 470.642 699.5 470.217 699.482 469.394C700.962 468.385 703.211 467.953 703.367 467.129C704.498 461.113 709.034 462.077 713.106 461.963C720.449 465.32 727.808 468.64 735.126 472.05C738.505 473.624 741.7 475.661 745.186 476.907C746.637 477.425 748.909 476.892 750.327 476.038C756.124 472.546 760.255 472.228 764.877 475.415C769.181 478.383 771.146 483.694 769.899 488.987C768.666 494.221 764.21 498.341 758.299 498.769C756.059 498.931 753.148 498.045 751.52 496.563C748.825 494.112 746.379 495.315 744.316 496.44C734.01 502.059 723.871 507.986 713.346 513.553C712.998 512.5 712.978 511.698 713.108 510.583C723.055 504.751 732.884 499.286 742.613 493.649C743.839 492.939 745.167 491.406 745.346 490.103C745.673 487.713 745.385 485.172 744.941 482.77C744.719 481.564 743.852 480.011 742.831 479.494C735.845 475.958 728.573 472.959 721.73 469.178C716.419 466.245 711.74 464.683 706.375 469.029C704.314 470.699 702.852 471.865 702.919 474.833C703.133 484.298 702.938 493.772 703.03 503.241C703.045 504.807 703.711 506.366 703.646 507.938C701.783 507.941 700.351 507.934 698.918 507.927Z" fill="#42A78F"/>
<path d="M712.958 510.896C712.978 511.698 712.998 512.5 713.027 513.703C714.354 523.377 712.913 527.332 707.087 530.435C702.13 533.074 696.914 532.759 692.997 528.9C689.46 525.416 687.664 521.133 689.92 516.061C690.245 515.33 690.432 514.537 691.141 513.272C694.049 511.148 696.498 509.524 698.948 507.9C698.948 507.9 698.968 507.951 698.943 507.939C700.351 507.934 701.783 507.941 703.622 507.951C704.029 507.953 704.051 507.905 704.134 508.239C705.072 512.092 707.538 511.652 710.461 510.985C711.532 510.967 712.245 510.931 712.958 510.896Z" fill="#3CA791"/>
<path d="M595.156 442.035C589.972 439.217 588.58 435.234 590.568 429.908C592.423 424.939 587.292 417.678 581.987 416.793C579.843 416.435 576.714 414.373 576.38 412.634C575.925 410.273 576.98 406.359 578.758 405.18C580.6 403.96 584.326 404.622 586.744 405.625C588.018 406.154 588.964 409.215 588.845 411.054C588.331 419.006 592.614 423.934 600.608 425.204C602.902 425.568 605.588 427.905 606.728 430.06C608.426 433.269 607.983 437.383 605.3 439.904C602.813 442.239 599.477 444.462 595.156 442.035Z" fill="#40A790"/>
<path d="M731.174 423.994C730.839 423.54 730.505 423.086 730.076 421.949C730.716 411.194 734.332 407.308 744.084 406.169C745.4 406.015 746.733 406.013 748.058 405.941C748.058 405.941 748.011 405.986 748.178 406.141C748.59 406.53 748.834 406.763 749.078 406.996C749.078 406.996 749.003 406.995 749.174 407.146C749.59 407.53 749.834 407.763 750.079 407.995C750.079 407.995 750.01 407.987 750.141 408.141C750.443 408.541 750.629 408.776 750.83 408.999C750.83 408.999 750.971 409.438 751.073 409.938C751.393 410.956 751.611 411.473 751.829 411.99C751.888 414.005 751.947 416.021 752.02 418.761C752.039 419.683 752.044 419.88 752.05 420.077C752.05 420.077 752.017 420.009 751.709 420.109C750.588 421.747 749.776 423.284 748.963 424.821C748.517 425.154 748.072 425.487 746.905 425.922C741.18 425.347 736.177 424.67 731.174 423.994Z" fill="#3CA791"/>
<path d="M713.063 461.517C709.034 462.077 704.498 461.113 703.367 467.129C703.211 467.953 700.962 468.385 699.283 469.018C698.46 469.016 698.037 468.993 697.125 468.764C696.393 468.374 696.14 468.205 695.878 468.052C695.546 468.01 695.288 467.849 694.945 466.985C693.487 462.581 692.188 458.761 690.889 454.941C690.935 454.503 690.982 454.065 691.241 453.128C691.636 452.39 691.806 452.143 691.962 451.886C692.289 451.428 692.616 450.97 693.2 450.079C693.644 449.411 693.818 449.168 693.979 448.916C693.979 448.916 693.997 448.992 694.138 448.821C694.502 448.396 694.725 448.143 694.947 447.89C694.947 447.89 695.026 447.426 695.387 447.076C696.536 446.468 697.323 446.21 698.11 445.952C698.11 445.952 698.574 446.023 699.05 446.332C703.958 448.765 708.388 450.889 712.819 453.014C712.886 455.7 712.953 458.386 713.063 461.517Z" fill="#3CA791"/>
<path d="M548.913 334.051C548.147 333.694 547.38 333.338 546.086 332.705C545.024 331.58 544.49 330.731 543.956 329.882C541.958 324.185 543.895 318.253 548.418 316.22C552.344 314.456 558.495 316.599 560.76 320.521C563.615 325.464 562.307 329.914 556.004 333.996C553.104 334.031 551.008 334.041 548.913 334.051Z" fill="#40A790"/>
<path d="M691.841 407.002C691.841 407.002 691.978 407.433 692.001 408.113C692.033 411.223 692.042 413.653 692.051 416.082C692.051 416.082 692.012 416.007 691.733 416.155C687.592 417.883 683.73 419.464 679.869 421.044C679.869 421.044 679.417 420.978 679.033 420.758C678.417 420.353 678.176 420.182 677.925 420.024C677.925 420.024 677.994 420.007 677.825 419.856C677.413 419.472 677.169 419.24 676.925 419.007C676.925 419.007 676.997 419.005 676.826 418.854C676.412 418.472 676.169 418.24 675.926 418.008C675.926 418.008 675.995 418.004 675.979 417.604C675.628 414.431 675.293 411.657 674.958 408.883C674.958 408.883 675.032 408.425 675.248 408.037C675.648 407.416 675.819 407.174 675.975 406.923C675.975 406.923 675.993 406.992 676.144 406.825C676.528 406.412 676.76 406.168 676.992 405.923C676.992 405.923 676.998 406.001 677.138 405.83C677.512 405.424 677.736 405.181 677.951 404.929C677.998 404.587 678.164 404.318 678.998 404.014C680.36 403.661 681.176 403.418 681.992 403.175C682.743 403.127 683.494 403.078 684.795 403.387C687.253 404.474 689.161 405.203 691.07 405.933C691.07 405.933 691.014 405.993 691.144 406.142C691.448 406.54 691.637 406.777 691.841 407.002Z" fill="#3CA791"/>
<path d="M712.889 452.633C708.388 450.889 703.958 448.765 699.273 446.405C701.882 446.529 704.747 447.156 707.608 447.141C709.146 447.133 711.119 446.435 712.141 445.343C718.501 438.544 724.647 431.545 731.019 424.303C736.177 424.67 741.18 425.347 746.646 426.03C743.724 426.518 740.33 426.94 736.96 427.504C735.202 427.798 732.894 427.775 731.85 428.866C726.063 434.913 720.522 441.201 715.062 447.549C713.989 448.797 713.641 450.668 712.889 452.633Z" fill="#42A78F"/>
<path d="M698.594 507.952C696.498 509.524 694.049 511.148 691.256 512.909C683.689 507.27 676.466 501.493 669.103 495.41C669.234 494.554 669.506 494.004 669.913 493.179C677.622 498.734 685.195 504.565 692.857 510.464C694.438 509.742 696.339 508.873 698.594 507.952Z" fill="#42A78F"/>
<path d="M680.097 421.375C683.73 419.464 687.592 417.883 691.771 416.172C685.817 423.143 692.408 428.951 694.127 435.19C695.072 438.619 696.696 441.861 698.062 445.57C697.323 446.21 696.536 446.468 695.465 446.855C692.691 440.1 690.066 433.262 687.765 426.316C686.497 422.49 683.876 421.511 680.097 421.375Z" fill="#42A78F"/>
<path d="M633.575 454.963C633.981 455.395 633.995 455.872 634.019 456.706C625.87 460.037 617.714 463.024 609.544 465.972C608.336 466.408 607.063 466.662 605.428 467.057C605.022 466.385 605.007 465.657 604.985 464.564C614.379 461.136 623.781 458.071 633.575 454.963Z" fill="#42A78F"/>
<path d="M543.648 330.031C544.49 330.731 545.023 331.58 545.766 332.65C539.539 337.864 533.104 342.856 526.359 347.995C525.204 347.461 524.358 346.781 523.181 346.024C529.68 340.692 536.51 335.436 543.648 330.031Z" fill="#42A78F"/>
<path d="M747.868 405.621C746.733 406.013 745.4 406.015 744.084 406.169C734.332 407.308 730.716 411.194 729.971 421.684C726.684 416.449 727.768 410.85 732.069 406.798C736.394 402.725 742.114 402.088 747.868 405.621Z" fill="#42A78F"/>
<path d="M690.559 455.174C692.188 458.761 693.487 462.581 694.872 466.764C689.707 464.702 689.659 460.18 690.559 455.174Z" fill="#42A78F"/>
<path d="M674.624 409.109C675.293 411.657 675.628 414.431 675.955 417.63C675.395 415.149 674.843 412.242 674.624 409.109Z" fill="#42A78F"/>
<path d="M690.913 405.616C689.161 405.203 687.253 404.474 685.167 403.455C686.911 403.877 688.834 404.588 690.913 405.616Z" fill="#42A78F"/>
<path d="M749.299 424.772C749.776 423.284 750.588 421.747 751.741 420.129C751.266 421.606 750.45 423.165 749.299 424.772Z" fill="#42A78F"/>
<path d="M692.384 415.849C692.042 413.652 692.033 411.223 692.032 408.337C692.265 410.46 692.491 413.038 692.384 415.849Z" fill="#42A78F"/>
<path d="M549.126 334.385C551.008 334.041 553.104 334.031 555.649 334.03C553.846 334.265 551.592 334.492 549.126 334.385Z" fill="#42A78F"/>
<path d="M681.646 403.112C681.176 403.418 680.36 403.661 679.225 403.93C679.703 403.654 680.501 403.352 681.646 403.112Z" fill="#42A78F"/>
<path d="M751.885 411.68C751.611 411.473 751.393 410.956 751.106 410.166C751.338 410.386 751.64 410.878 751.885 411.68Z" fill="#42A78F"/>
<path d="M691.857 406.739C691.637 406.777 691.448 406.54 691.147 406.102C691.304 406.1 691.588 406.288 691.857 406.739Z" fill="#42A78F"/>
<path d="M750.846 408.739C750.629 408.776 750.443 408.541 750.146 408.106C750.302 408.105 750.582 408.292 750.846 408.739Z" fill="#42A78F"/>
<path d="M676.737 406.013C676.76 406.168 676.528 406.412 676.109 406.828C676.108 406.7 676.295 406.402 676.737 406.013Z" fill="#42A78F"/>
<path d="M748.989 406.74C748.834 406.763 748.59 406.53 748.174 406.109C748.302 406.109 748.6 406.296 748.989 406.74Z" fill="#42A78F"/>
<path d="M695.977 468.293C696.14 468.205 696.393 468.374 696.813 468.701C696.686 468.741 696.381 468.637 695.977 468.293Z" fill="#42A78F"/>
<path d="M675.733 407.007C675.819 407.174 675.648 407.416 675.321 407.816C675.282 407.687 675.386 407.39 675.733 407.007Z" fill="#42A78F"/>
<path d="M691.726 451.985C691.806 452.143 691.636 452.39 691.312 452.805C691.277 452.681 691.383 452.383 691.726 451.985Z" fill="#42A78F"/>
<path d="M693.733 449C693.818 449.168 693.644 449.411 693.312 449.816C693.273 449.686 693.38 449.385 693.733 449Z" fill="#42A78F"/>
<path d="M694.698 447.993C694.725 448.143 694.502 448.396 694.1 448.829C694.097 448.705 694.273 448.401 694.698 447.993Z" fill="#42A78F"/>
<path d="M677.704 405.025C677.736 405.181 677.512 405.424 677.099 405.833C677.099 405.712 677.279 405.416 677.704 405.025Z" fill="#42A78F"/>
<path d="M749.994 407.736C749.834 407.763 749.59 407.53 749.175 407.108C749.306 407.106 749.607 407.291 749.994 407.736Z" fill="#42A78F"/>
<path d="M678.012 420.264C678.176 420.182 678.417 420.353 678.817 420.682C678.69 420.719 678.394 420.611 678.012 420.264Z" fill="#42A78F"/>
<path d="M752.28 419.984C752.044 419.88 752.039 419.683 752.035 419.19C752.195 419.227 752.353 419.56 752.28 419.984Z" fill="#42A78F"/>
<path d="M677.016 419.261C677.169 419.24 677.413 419.472 677.827 419.892C677.702 419.891 677.405 419.703 677.016 419.261Z" fill="#42A78F"/>
<path d="M676.017 418.261C676.169 418.24 676.412 418.472 676.826 418.89C676.7 418.889 676.404 418.702 676.017 418.261Z" fill="#42A78F"/>
<path d="M704.134 508.239C705.954 508.723 707.857 509.54 709.931 510.663C707.538 511.652 705.072 512.092 704.134 508.239Z" fill="#42A78F"/>
</svg>
